<mxfile host="app.diagrams.net" modified="2023-12-05T13:58:20.310Z" agent="Mozilla/5.0 (Macintosh; Intel Mac OS X 10.15; rv:120.0) Gecko/20100101 Firefox/120.0" etag="sPVv-4vXkyXeKJkVj2Io" version="22.1.5" type="device">
  <diagram name="Page-1" id="9EkCs0b8sLx1aZMsfJqp">
    <mxGraphModel dx="1194" dy="767" grid="0" gridSize="10" guides="1" tooltips="1" connect="1" arrows="1" fold="1" page="1" pageScale="1" pageWidth="850" pageHeight="1100" math="0" shadow="0">
      <root>
        <mxCell id="0" />
        <mxCell id="1" parent="0" />
        <mxCell id="Cn9RMeOCZ9ZSjpGhhXbO-66" value="" style="rounded=1;whiteSpace=wrap;html=1;arcSize=12;fillColor=#F7F7F7;strokeColor=none;fontFamily=Verdana;" vertex="1" parent="1">
          <mxGeometry x="50" y="620" width="782" height="120" as="geometry" />
        </mxCell>
        <mxCell id="Cn9RMeOCZ9ZSjpGhhXbO-44" value="" style="rounded=1;whiteSpace=wrap;html=1;arcSize=3;fillColor=#F7F7F7;strokeColor=none;" vertex="1" parent="1">
          <mxGeometry x="50" y="60" width="782" height="540" as="geometry" />
        </mxCell>
        <mxCell id="Cn9RMeOCZ9ZSjpGhhXbO-4" value="" style="group" vertex="1" connectable="0" parent="1">
          <mxGeometry x="80" y="110" width="240" height="120" as="geometry" />
        </mxCell>
        <mxCell id="Cn9RMeOCZ9ZSjpGhhXbO-1" value="&lt;font color=&quot;#990000&quot;&gt;Problem Identification&lt;/font&gt;" style="rounded=1;whiteSpace=wrap;html=1;fontStyle=1;fontSize=18;fillColor=#FCFCFC;fontColor=#333333;strokeColor=#666666;" vertex="1" parent="Cn9RMeOCZ9ZSjpGhhXbO-4">
          <mxGeometry width="240" height="120" as="geometry" />
        </mxCell>
        <mxCell id="Cn9RMeOCZ9ZSjpGhhXbO-3" value="Evaluate the problem" style="text;html=1;strokeColor=none;fillColor=none;align=center;verticalAlign=middle;whiteSpace=wrap;rounded=0;fontSize=16;fontColor=#666666;fontFamily=Verdana;" vertex="1" parent="Cn9RMeOCZ9ZSjpGhhXbO-4">
          <mxGeometry x="10" y="74" width="220" height="30" as="geometry" />
        </mxCell>
        <mxCell id="Cn9RMeOCZ9ZSjpGhhXbO-11" value="" style="shape=image;verticalLabelPosition=bottom;labelBackgroundColor=default;verticalAlign=top;aspect=fixed;imageAspect=0;image=data:image/png,iVBORw0KGgoAAAANSUhEUgAAAD4AAABGCAYAAACUsCfoAAAEDmlDQ1BrQ0dDb2xvclNwYWNlR2VuZXJpY1JHQgAAOI2NVV1oHFUUPpu5syskzoPUpqaSDv41lLRsUtGE2uj+ZbNt3CyTbLRBkMns3Z1pJjPj/KRpKT4UQRDBqOCT4P9bwSchaqvtiy2itFCiBIMo+ND6R6HSFwnruTOzu5O4a73L3PnmnO9+595z7t4LkLgsW5beJQIsGq4t5dPis8fmxMQ6dMF90A190C0rjpUqlSYBG+PCv9rt7yDG3tf2t/f/Z+uuUEcBiN2F2Kw4yiLiZQD+FcWyXYAEQfvICddi+AnEO2ycIOISw7UAVxieD/Cyz5mRMohfRSwoqoz+xNuIB+cj9loEB3Pw2448NaitKSLLRck2q5pOI9O9g/t/tkXda8Tbg0+PszB9FN8DuPaXKnKW4YcQn1Xk3HSIry5ps8UQ/2W5aQnxIwBdu7yFcgrxPsRjVXu8HOh0qao30cArp9SZZxDfg3h1wTzKxu5E/LUxX5wKdX5SnAzmDx4A4OIqLbB69yMesE1pKojLjVdoNsfyiPi45hZmAn3uLWdpOtfQOaVmikEs7ovj8hFWpz7EV6mel0L9Xy23FMYlPYZenAx0yDB1/PX6dledmQjikjkXCxqMJS9WtfFCyH9XtSekEF+2dH+P4tzITduTygGfv58a5VCTH5PtXD7EFZiNyUDBhHnsFTBgE0SQIA9pfFtgo6cKGuhooeilaKH41eDs38Ip+f4At1Rq/sjr6NEwQqb/I/DQqsLvaFUjvAx+eWirddAJZnAj1DFJL0mSg/gcIpPkMBkhoyCSJ8lTZIxk0TpKDjXHliJzZPO50dR5ASNSnzeLvIvod0HG/mdkmOC0z8VKnzcQ2M/Yz2vKldduXjp9bleLu0ZWn7vWc+l0JGcaai10yNrUnXLP/8Jf59ewX+c3Wgz+B34Df+vbVrc16zTMVgp9um9bxEfzPU5kPqUtVWxhs6OiWTVW+gIfywB9uXi7CGcGW/zk98k/kmvJ95IfJn/j3uQ+4c5zn3Kfcd+AyF3gLnJfcl9xH3OfR2rUee80a+6vo7EK5mmXUdyfQlrYLTwoZIU9wsPCZEtP6BWGhAlhL3p2N6sTjRdduwbHsG9kq32sgBepc+xurLPW4T9URpYGJ3ym4+8zA05u44QjST8ZIoVtu3qE7fWmdn5LPdqvgcZz8Ww8BWJ8X3w0PhQ/wnCDGd+LvlHs8dRy6bLLDuKMaZ20tZrqisPJ5ONiCq8yKhYM5cCgKOu66Lsc0aYOtZdo5QCwezI4wm9J/v0X23mlZXOfBjj8Jzv3WrY5D+CsA9D7aMs2gGfjve8ArD6mePZSeCfEYt8CONWDw8FXTxrPqx/r9Vt4biXeANh8vV7/+/16ffMD1N8AuKD/A/8leAvFY9bLAAAAomVYSWZNTQAqAAAACAAGAQYAAwAAAAEAAgAAARIAAwAAAAEAAQAAARoABQAAAAEAAABWARsABQAAAAEAAABeASgAAwAAAAEAAgAAh2kABAAAAAEAAABmAAAAAAAAAJAAAAABAAAAkAAAAAEAA5KGAAcAAAASAAAAkKACAAQAAAABAAAAPqADAAQAAAABAAAARgAAAABBU0NJSQAAAFNjcmVlbnNob3TxaGjlAAAACXBIWXMAABYlAAAWJQFJUiTwAAADUWlUWHRYTUw6Y29tLmFkb2JlLnhtcAAAAAAAPHg6eG1wbWV0YSB4bWxuczp4PSJhZG9iZTpuczptZXRhLyIgeDp4bXB0az0iWE1QIENvcmUgNi4wLjAiPgogICA8cmRmOlJERiB4bWxuczpyZGY9Imh0dHA6Ly93d3cudzMub3JnLzE5OTkvMDIvMjItcmRmLXN5bnRheC1ucyMiPgogICAgICA8cmRmOkRlc2NyaXB0aW9uIHJkZjphYm91dD0iIgogICAgICAgICAgICB4bWxuczp0aWZmPSJodHRwOi8vbnMuYWRvYmUuY29tL3RpZmYvMS4wLyIKICAgICAgICAgICAgeG1sbnM6ZXhpZj0iaHR0cDovL25zLmFkb2JlLmNvbS9leGlmLzEuMC8iPgogICAgICAgICA8dGlmZjpDb21wcmVzc2lvbj4xPC90aWZmOkNvbXByZXNzaW9uPgogICAgICAgICA8dGlmZjpSZXNvbHV0aW9uVW5pdD4yPC90aWZmOlJlc29sdXRpb25Vbml0PgogICAgICAgICA8dGlmZjpYUmVzb2x1dGlvbj4xNDQ8L3RpZmY6WFJlc29sdXRpb24+CiAgICAgICAgIDx0aWZmOllSZXNvbHV0aW9uPjE0NDwvdGlmZjpZUmVzb2x1dGlvbj4KICAgICAgICAgPHRpZmY6UGhvdG9tZXRyaWNJbnRlcnByZXRhdGlvbj4yPC90aWZmOlBob3RvbWV0cmljSW50ZXJwcmV0YXRpb24+CiAgICAgICAgIDx0aWZmOk9yaWVudGF0aW9uPjE8L3RpZmY6T3JpZW50YXRpb24+CiAgICAgICAgIDxleGlmOlBpeGVsWERpbWVuc2lvbj42MjwvZXhpZjpQaXhlbFhEaW1lbnNpb24+CiAgICAgICAgIDxleGlmOlVzZXJDb21tZW50PlNjcmVlbnNob3Q8L2V4aWY6VXNlckNvbW1lbnQ+CiAgICAgICAgIDxleGlmOlBpeGVsWURpbWVuc2lvbj43MDwvZXhpZjpQaXhlbFlEaW1lbnNpb24+CiAgICAgIDwvcmRmOkRlc2NyaXB0aW9uPgogICA8L3JkZjpSREY+CjwveDp4bXBtZXRhPgryJG+nAAAGPElEQVR4Ae2af0yVVRjHH1v/yIoUpNr6odgPk822JHJpP8BStJDGZNMFhWsZCW1pqWkNRZuhwpA1rBgMEWWhG9GExsWpmKVlUhYus5pClFoBlUb8S3yvntO5557zvu+9933fS3CfDd/nPec5Pz7v+fE851zHDA4JjUK5ZhQye5Ej4KNt5CMjHhnxUfIFrnWbs77xAJW8XUOdnT9RXNwEykifQ0UFeZa78cXJ09R2pJ3+utzPy2SkJdMD9yXwdyvKGDf9eHbuOmppbfPr1/zUFNpdsdEvXUzwHDpOW8qqqaPjtJjMdXzEFS89S7k5GTzNSHENXAfNOmcEn7d6K+3Z28RMDZ+zZibRjvJCio2JNrRzZVeXocdGjaW66hKaFH877xxmAuxkyVu5xQ86bkIsTZuWQDMfTPKpA2WPHjtBmUtWydX4v2OqOylZLxQMxkx8iP/dMnXO4PGvvvU22dt3aXB68tM8D3awZ9Jy8HOfPJRFmiw/nO32q+e1DeWymc+7o1NdNdIf1JX5bER9f1ymuQuXUVdnNx8VNu3vScqgnp5ebzpG+ej+WsMpnLwgl06durIHREVF0aHmKrpr8m28XlFxbKpbgUZHsBb3N7zrM2Ux7VPSczk07Mq2rjWEhk3DzmLCMoIMDAxQw75DXl31jyPgVqFZh1Tw4u6NvWDe7BnMXPtEPelPPMbzPQePcV1WbAdfs3G7n8u6+aYb6WTH93LbPu8qeGYwI/Feppo+H5mVyG36+//huqzYDl5ZXS+34Q1WXl9fSlizCGB0ooOPjr5OV8QvfdwN1/O0X3/7neuyYjs4XIxOsFHlr9hA79U06kyUa35cAOCHP23ndd95RzzXZcX2kLXp/VJClBUz/sqXP9d1gZo8H5On9TBv+43CUsLILM54nKeJChv54vJd3uQ1y3PEbEP9QNtnPD9hymSu+yk+zs3BF/hf+GHm02+dOncQftxOKdpWw+tHOyqfz9qzfar7fdmrCdiVq8rf5NlwN5W1+inPDS0qWD7FZVXcGpGdkScIOoCp2NlIXd0XaWV+tql/5b0ZUrJyC/i0j4+fSO1tu8VsSzqCni+/OeO17ew+T/UNHp/DC3y5HCjJFQe1xkU/3f3LRaqr+G8k5Qbk92cWpXFwHE0BgTVtVX489zPNTnveG6CoygAaM8vsmBrwVBeh0fD5C3qXoeqYPP1OfP2dykybdnZos8QyUQkCHYy03IbKNqARl6FVFTqdBigAirE94vLiTau0XkLVJ8sjPhygGYAc22MGNHuOsGxLT0vgRtA4DWGdWhX4eFGsTEvRHjrz81bO83JZ9m4KLkOzSwRWAZ4s0BDTdPquPc08S+w4T7SohApvCK6CZpvHvNRk3sW6+n2ES0AzwWiLEdzSnEyzIob5IcGzSEZ+Gt2cwBa3HnIkZhQpIQ/RGovcpiQ+JTcZ9LvZTY6qYmUAgxMUDhNMdAEBoiXE3aLg9mTB/Edp/NVT0p+X/qa6vR9578JEu5bGClNfK9qb6aqbnKXPLabN6/KVRZXg96dke4+SKKGDZrWp4Fme7rmp8BV6cYm1a2BdHap0FXxf1ycqU1KCx056mBtv37be1D9i7S5fXUQ9vX28nErBvVlt5Vu2jrTcDuDvnv4kT9aBKzc3dJAJfvUwc1dwSWfaPySMJM7jmCWiIA15sDELJcVywegvry2xVky18OXjXWJylu1HSFW7oabJG/KyVzdrq1ROdXwy8RSFd5ykWhveCehAgXJuiex6ESMgwtMdgJRTHZ3FiUv01ThJpS7MM532boGK7QQKjbJacGT+H+CDgTYFH+7wwUJbAh+u8KFAWwYfbvChQgcEPlzg7YAOGDzc8HZBBwUeLng7oYMGdxvebuiQwN2CdwI6ZHCn4Z2CtgXcKXgnoW0DtxveaWhbwe2CdwPadvBQ4d2CdgQ8WHg3oR0DDxTebWhHwa3ChwMafdNePSHTLtFdY+FiUPzfzGbXRXb1B/W4Ao6GZHikieImNNo1vHoSOxaqLl9jifW5DY22XQNHY4DHzzqiLMpMM7wNFW3t1F2b6nKn8euq0z8uyG2K72EDFzsRDt3VqR4OQF2bEXDdlxmp6ZERH6kjq+OKjLjuy4zU9MiIj9SR1XGN2hH/F8kQdRiX+TLCAAAAAElFTkSuQmCC;fontFamily=Verdana;" vertex="1" parent="Cn9RMeOCZ9ZSjpGhhXbO-4">
          <mxGeometry x="102.28999999999999" y="9" width="35.43" height="40" as="geometry" />
        </mxCell>
        <mxCell id="Cn9RMeOCZ9ZSjpGhhXbO-5" value="" style="group" vertex="1" connectable="0" parent="1">
          <mxGeometry x="560" y="110" width="240" height="270" as="geometry" />
        </mxCell>
        <mxCell id="Cn9RMeOCZ9ZSjpGhhXbO-6" value="&lt;font color=&quot;#990000&quot;&gt;User Research&lt;br&gt;&lt;/font&gt;" style="rounded=1;whiteSpace=wrap;html=1;fontStyle=1;fontSize=18;fillColor=#FCFCFC;fontColor=#333333;strokeColor=#666666;" vertex="1" parent="Cn9RMeOCZ9ZSjpGhhXbO-5">
          <mxGeometry width="240" height="120" as="geometry" />
        </mxCell>
        <mxCell id="Cn9RMeOCZ9ZSjpGhhXbO-8" value="Understand the users" style="text;html=1;strokeColor=none;fillColor=none;align=center;verticalAlign=middle;whiteSpace=wrap;rounded=0;fontSize=16;fontColor=#666666;fontFamily=Verdana;" vertex="1" parent="Cn9RMeOCZ9ZSjpGhhXbO-5">
          <mxGeometry x="10" y="74" width="220" height="30" as="geometry" />
        </mxCell>
        <mxCell id="Cn9RMeOCZ9ZSjpGhhXbO-10" value="" style="shape=image;verticalLabelPosition=bottom;labelBackgroundColor=default;verticalAlign=top;aspect=fixed;imageAspect=0;image=data:image/png,iVBORw0KGgoAAAANSUhEUgAAAEQAAABACAYAAACjgtGkAAAEDmlDQ1BrQ0dDb2xvclNwYWNlR2VuZXJpY1JHQgAAOI2NVV1oHFUUPpu5syskzoPUpqaSDv41lLRsUtGE2uj+ZbNt3CyTbLRBkMns3Z1pJjPj/KRpKT4UQRDBqOCT4P9bwSchaqvtiy2itFCiBIMo+ND6R6HSFwnruTOzu5O4a73L3PnmnO9+595z7t4LkLgsW5beJQIsGq4t5dPis8fmxMQ6dMF90A190C0rjpUqlSYBG+PCv9rt7yDG3tf2t/f/Z+uuUEcBiN2F2Kw4yiLiZQD+FcWyXYAEQfvICddi+AnEO2ycIOISw7UAVxieD/Cyz5mRMohfRSwoqoz+xNuIB+cj9loEB3Pw2448NaitKSLLRck2q5pOI9O9g/t/tkXda8Tbg0+PszB9FN8DuPaXKnKW4YcQn1Xk3HSIry5ps8UQ/2W5aQnxIwBdu7yFcgrxPsRjVXu8HOh0qao30cArp9SZZxDfg3h1wTzKxu5E/LUxX5wKdX5SnAzmDx4A4OIqLbB69yMesE1pKojLjVdoNsfyiPi45hZmAn3uLWdpOtfQOaVmikEs7ovj8hFWpz7EV6mel0L9Xy23FMYlPYZenAx0yDB1/PX6dledmQjikjkXCxqMJS9WtfFCyH9XtSekEF+2dH+P4tzITduTygGfv58a5VCTH5PtXD7EFZiNyUDBhHnsFTBgE0SQIA9pfFtgo6cKGuhooeilaKH41eDs38Ip+f4At1Rq/sjr6NEwQqb/I/DQqsLvaFUjvAx+eWirddAJZnAj1DFJL0mSg/gcIpPkMBkhoyCSJ8lTZIxk0TpKDjXHliJzZPO50dR5ASNSnzeLvIvod0HG/mdkmOC0z8VKnzcQ2M/Yz2vKldduXjp9bleLu0ZWn7vWc+l0JGcaai10yNrUnXLP/8Jf59ewX+c3Wgz+B34Df+vbVrc16zTMVgp9um9bxEfzPU5kPqUtVWxhs6OiWTVW+gIfywB9uXi7CGcGW/zk98k/kmvJ95IfJn/j3uQ+4c5zn3Kfcd+AyF3gLnJfcl9xH3OfR2rUee80a+6vo7EK5mmXUdyfQlrYLTwoZIU9wsPCZEtP6BWGhAlhL3p2N6sTjRdduwbHsG9kq32sgBepc+xurLPW4T9URpYGJ3ym4+8zA05u44QjST8ZIoVtu3qE7fWmdn5LPdqvgcZz8Ww8BWJ8X3w0PhQ/wnCDGd+LvlHs8dRy6bLLDuKMaZ20tZrqisPJ5ONiCq8yKhYM5cCgKOu66Lsc0aYOtZdo5QCwezI4wm9J/v0X23mlZXOfBjj8Jzv3WrY5D+CsA9D7aMs2gGfjve8ArD6mePZSeCfEYt8CONWDw8FXTxrPqx/r9Vt4biXeANh8vV7/+/16ffMD1N8AuKD/A/8leAvFY9bLAAAAomVYSWZNTQAqAAAACAAGAQYAAwAAAAEAAgAAARIAAwAAAAEAAQAAARoABQAAAAEAAABWARsABQAAAAEAAABeASgAAwAAAAEAAgAAh2kABAAAAAEAAABmAAAAAAAAAJAAAAABAAAAkAAAAAEAA5KGAAcAAAASAAAAkKACAAQAAAABAAAARKADAAQAAAABAAAAQAAAAABBU0NJSQAAAFNjcmVlbnNob3SmPEn7AAAACXBIWXMAABYlAAAWJQFJUiTwAAADUWlUWHRYTUw6Y29tLmFkb2JlLnhtcAAAAAAAPHg6eG1wbWV0YSB4bWxuczp4PSJhZG9iZTpuczptZXRhLyIgeDp4bXB0az0iWE1QIENvcmUgNi4wLjAiPgogICA8cmRmOlJERiB4bWxuczpyZGY9Imh0dHA6Ly93d3cudzMub3JnLzE5OTkvMDIvMjItcmRmLXN5bnRheC1ucyMiPgogICAgICA8cmRmOkRlc2NyaXB0aW9uIHJkZjphYm91dD0iIgogICAgICAgICAgICB4bWxuczp0aWZmPSJodHRwOi8vbnMuYWRvYmUuY29tL3RpZmYvMS4wLyIKICAgICAgICAgICAgeG1sbnM6ZXhpZj0iaHR0cDovL25zLmFkb2JlLmNvbS9leGlmLzEuMC8iPgogICAgICAgICA8dGlmZjpDb21wcmVzc2lvbj4xPC90aWZmOkNvbXByZXNzaW9uPgogICAgICAgICA8dGlmZjpSZXNvbHV0aW9uVW5pdD4yPC90aWZmOlJlc29sdXRpb25Vbml0PgogICAgICAgICA8dGlmZjpYUmVzb2x1dGlvbj4xNDQ8L3RpZmY6WFJlc29sdXRpb24+CiAgICAgICAgIDx0aWZmOllSZXNvbHV0aW9uPjE0NDwvdGlmZjpZUmVzb2x1dGlvbj4KICAgICAgICAgPHRpZmY6UGhvdG9tZXRyaWNJbnRlcnByZXRhdGlvbj4yPC90aWZmOlBob3RvbWV0cmljSW50ZXJwcmV0YXRpb24+CiAgICAgICAgIDx0aWZmOk9yaWVudGF0aW9uPjE8L3RpZmY6T3JpZW50YXRpb24+CiAgICAgICAgIDxleGlmOlBpeGVsWERpbWVuc2lvbj42ODwvZXhpZjpQaXhlbFhEaW1lbnNpb24+CiAgICAgICAgIDxleGlmOlVzZXJDb21tZW50PlNjcmVlbnNob3Q8L2V4aWY6VXNlckNvbW1lbnQ+CiAgICAgICAgIDxleGlmOlBpeGVsWURpbWVuc2lvbj42NDwvZXhpZjpQaXhlbFlEaW1lbnNpb24+CiAgICAgIDwvcmRmOkRlc2NyaXB0aW9uPgogICA8L3JkZjpSREY+CjwveDp4bXBtZXRhPgqR+Y90AAAHOklEQVR4Ae1ae1CVRRQ/Nv0jZeWrxjfkI7N0TDRTfGIjVIqZmSimjaOiyCQ4CjimXUUT1BIdwPCBgqBYCopWYg0wEpWvCSHRrAnTxkrFRyX+Sf7uzB73fvdy7/d9d+8FnLszzJ797u7Zsz/O2XP27Laov1/IVxiBR5jyEVYEfIBoFMEHiAaQRzXtRm3W3vyHtu8+SOUnKujqn9eopuZ3qzx+fn7Uo4c/hY4JorfGj6aez3bxmJwtmsKm+stvV2hl8jb6qqhE10L79etD8TGzKDR4sK7+Rjo1OiDJm7IpNSOX6urqjMht7TvlnfGUvi7O8DhnAxoVkOmRK+y0on27thQ8agiNCAqkp55sxbIXfllKxaXf0/UbtfwNREBANyo6kE5t2zxh8910AybTGGXLzvz65wIn1LfpNsz6B3pv/tcuRdGOw/jAURH1N2rvuByrp0Ojaoj4L578sZq6d+us+7+Mzff9pevpaFGpYEFBQwdR4Z5PuG2WaBKAmBU+InK5DShrLIto3nsTzbKzjmvWcUhuRiL17duHAdiXf5Rps4THNQQutbjsNH1RVGYTW7Rv34569QygoMH93Yot8gq+oQWxK3n9tZfKmDZDeAwQo7HFayGj6cP4OaaCrrb+w3ntuZkb3IpPPGIyiC2Cx822c6kstQMCQdkrwdNoaWK6g1+990l56O4otmjp15JGDh9M40NHcmxx+86/dLz8jF1ssXXHXjp3/lfamWrR7XVUwqUUkLBpi6j8u1MsH4CYHj6BlkS/63Bx4RNftfb9dFcBrV63he7V3bO2wSNkUhSdLslhXt4ilJlMwqo0GzD8A7pSyZEdlLRigUMw5AXCVZ79dr+Nx8DBDjy9XZQAgg10W2Yeyw4wjh3YYmiDROhdejiDhg4ZxHzAE7y9WZQAYkneyjLDTACG2bPFrjQL4TwjisxbfPNkrQSQny/WsIwfxM03DQaYAMiY6JnMT+bNHz1IKAFEJHIgp3/Xjm6LK/OQeTtijHONXLr7uze/EkBkgbxNn6o4bzOlu9m0Zg9IReUFBkTee/ijQaLZA1J+4iwvOTCwL9NmiWYPSMXZc7z24UMGMG2WaNaAIMKVc7GTw8aYxYHHNWtAUtKyeSGhIaPccveCUbMFJGpxMl2/fkOsgxbOm8q0O0SzBAQpgn37j/C6oR0vv/Qgc8Y/mCCUACKn8WQ3aEIe65BLl6/yUJk3PmLfQIpAFLjazWuXiKbbtRJAOnV8mgWpup/LcLdU/nSRWbR6/DGmQWzPOsBtnJuyt32kZO8QTJUAIru742UnBW/T9ckzVTz2hee7Mw3ir7+vcXtA/xeptXSZxT+4QSgBZMyIgSwC3CASv2YLjvvy+QWX23JB5k0UJJKQdoyKW0faM43oY7RWAgjOD7KtZ+z83Kgc3H9HTiHTMAntZon9AvkWuez77DD1HzbZmo91FxglgEC48EmhLGNlZTUdLT7Bbb0EFpOb9wCQsNftAy2kB86U5NKSmNkEwESBZmKzDQqZSRlZBeKz4VrpNUTvgW/yZTTuXcqLsgxteNqc7A/Fe5xm3QDg+tTdlJN3iPOxAgHMn5KcYPhKQpmGQBDLsmghjzVoQqJYrwojWy8nqOfMCncKBiaCtiBni9wtYhG5IGiLmLWYRodFGtJWpRoCgRBBykETHreUFGbIstrRSCZrc7IwC6MFl+ZxKzZRVVW13VBchuu52lAOCCTRXkK7Uv3egyZyGC4S1GZzspgf+9eyxM10qeYymlz0/HOUmgxmhol07dyBhQBx6/6llLPy3927/HOnDs/Qzdt3uG2GwFMraBheA8hJI2z2rooyDQEQG9JyKGfvIZsjOQS6cPqgUzm0GoXOeC6VmDDP0Kbc0CTy3a+ry3AlgMDNbUzNZrUXgsEt5uem2MUS4ndRA8yxk+bbqTheH06fOoHWLo8SXU3VXgMEthoTn2QHBKSGl2joCrOhVSWlZFHq1lyHLjQ2egZFzjT3GMbjgACI5JRMcmSTcH+W+LkuXWZDoEBbEFvIXkf0dfYcE+OCxs7gOEiM0dZKTcbZmw+E7utWLXRpHloBG2pjLtzaye/IRF+40I9Xx9qBjtTAMkvD78xgwn9UHxNsHNa69xAkZeQ8hOAGIBJiPfOIFnNAG5M2ZjqMLbTvVKElvQa8IUSzqQHG9tREl5GrLkC0wRZmgvfAlaO7j9xspHbSwAnasibVziSmvD2O0jfE80gEZzdv2bt5va+edQHSpU8Iu1IgHT03ghJiHty/sjReILDx7sopYGDgia5UFymbWRcg8i7t7hsuFZLDjHBOEcXVRin66amVR6p6Jm3KfXyAaP47hk1GM75JNL1uMnJ6sEkgIAkhP8GSPpsmdZkMAi751Gh6NsUDIdPyuNlKueoyGTFjQz5e/O7Nuk3rVsqiYlluQ4DIAx9WWpfJPKyLd7QuHyAaVHyA+ADRIKBp+jTEB4gGAU3TpyEaQP4HrgXHyMcewGUAAAAASUVORK5CYII=;fontFamily=Verdana;" vertex="1" parent="Cn9RMeOCZ9ZSjpGhhXbO-5">
          <mxGeometry x="100.35" y="10" width="39.31" height="37" as="geometry" />
        </mxCell>
        <mxCell id="Cn9RMeOCZ9ZSjpGhhXbO-12" value="" style="group;fontFamily=Verdana;" vertex="1" connectable="0" parent="1">
          <mxGeometry x="560" y="280" width="240" height="120" as="geometry" />
        </mxCell>
        <mxCell id="Cn9RMeOCZ9ZSjpGhhXbO-13" value="&lt;font color=&quot;#990000&quot;&gt;Product Design&lt;br&gt;&lt;/font&gt;" style="rounded=1;whiteSpace=wrap;html=1;fontStyle=1;fontSize=18;fillColor=#FCFCFC;fontColor=#333333;strokeColor=#666666;fontFamily=Verdana;" vertex="1" parent="Cn9RMeOCZ9ZSjpGhhXbO-12">
          <mxGeometry width="240" height="120" as="geometry" />
        </mxCell>
        <mxCell id="Cn9RMeOCZ9ZSjpGhhXbO-14" value="Conceptualize and Design" style="text;html=1;strokeColor=none;fillColor=none;align=center;verticalAlign=middle;whiteSpace=wrap;rounded=0;fontSize=16;fontColor=#666666;fontFamily=Verdana;" vertex="1" parent="Cn9RMeOCZ9ZSjpGhhXbO-12">
          <mxGeometry x="10" y="74" width="220" height="30" as="geometry" />
        </mxCell>
        <mxCell id="Cn9RMeOCZ9ZSjpGhhXbO-36" value="" style="shape=image;verticalLabelPosition=bottom;labelBackgroundColor=default;verticalAlign=top;aspect=fixed;imageAspect=0;image=data:image/png,iVBORw0KGgoAAAANSUhEUgAAADoAAAA4CAYAAACsc+sjAAAEDmlDQ1BrQ0dDb2xvclNwYWNlR2VuZXJpY1JHQgAAOI2NVV1oHFUUPpu5syskzoPUpqaSDv41lLRsUtGE2uj+ZbNt3CyTbLRBkMns3Z1pJjPj/KRpKT4UQRDBqOCT4P9bwSchaqvtiy2itFCiBIMo+ND6R6HSFwnruTOzu5O4a73L3PnmnO9+595z7t4LkLgsW5beJQIsGq4t5dPis8fmxMQ6dMF90A190C0rjpUqlSYBG+PCv9rt7yDG3tf2t/f/Z+uuUEcBiN2F2Kw4yiLiZQD+FcWyXYAEQfvICddi+AnEO2ycIOISw7UAVxieD/Cyz5mRMohfRSwoqoz+xNuIB+cj9loEB3Pw2448NaitKSLLRck2q5pOI9O9g/t/tkXda8Tbg0+PszB9FN8DuPaXKnKW4YcQn1Xk3HSIry5ps8UQ/2W5aQnxIwBdu7yFcgrxPsRjVXu8HOh0qao30cArp9SZZxDfg3h1wTzKxu5E/LUxX5wKdX5SnAzmDx4A4OIqLbB69yMesE1pKojLjVdoNsfyiPi45hZmAn3uLWdpOtfQOaVmikEs7ovj8hFWpz7EV6mel0L9Xy23FMYlPYZenAx0yDB1/PX6dledmQjikjkXCxqMJS9WtfFCyH9XtSekEF+2dH+P4tzITduTygGfv58a5VCTH5PtXD7EFZiNyUDBhHnsFTBgE0SQIA9pfFtgo6cKGuhooeilaKH41eDs38Ip+f4At1Rq/sjr6NEwQqb/I/DQqsLvaFUjvAx+eWirddAJZnAj1DFJL0mSg/gcIpPkMBkhoyCSJ8lTZIxk0TpKDjXHliJzZPO50dR5ASNSnzeLvIvod0HG/mdkmOC0z8VKnzcQ2M/Yz2vKldduXjp9bleLu0ZWn7vWc+l0JGcaai10yNrUnXLP/8Jf59ewX+c3Wgz+B34Df+vbVrc16zTMVgp9um9bxEfzPU5kPqUtVWxhs6OiWTVW+gIfywB9uXi7CGcGW/zk98k/kmvJ95IfJn/j3uQ+4c5zn3Kfcd+AyF3gLnJfcl9xH3OfR2rUee80a+6vo7EK5mmXUdyfQlrYLTwoZIU9wsPCZEtP6BWGhAlhL3p2N6sTjRdduwbHsG9kq32sgBepc+xurLPW4T9URpYGJ3ym4+8zA05u44QjST8ZIoVtu3qE7fWmdn5LPdqvgcZz8Ww8BWJ8X3w0PhQ/wnCDGd+LvlHs8dRy6bLLDuKMaZ20tZrqisPJ5ONiCq8yKhYM5cCgKOu66Lsc0aYOtZdo5QCwezI4wm9J/v0X23mlZXOfBjj8Jzv3WrY5D+CsA9D7aMs2gGfjve8ArD6mePZSeCfEYt8CONWDw8FXTxrPqx/r9Vt4biXeANh8vV7/+/16ffMD1N8AuKD/A/8leAvFY9bLAAAAomVYSWZNTQAqAAAACAAGAQYAAwAAAAEAAgAAARIAAwAAAAEAAQAAARoABQAAAAEAAABWARsABQAAAAEAAABeASgAAwAAAAEAAgAAh2kABAAAAAEAAABmAAAAAAAAAJAAAAABAAAAkAAAAAEAA5KGAAcAAAASAAAAkKACAAQAAAABAAAAOqADAAQAAAABAAAAOAAAAABBU0NJSQAAAFNjcmVlbnNob3SS3Jn/AAAACXBIWXMAABYlAAAWJQFJUiTwAAADUWlUWHRYTUw6Y29tLmFkb2JlLnhtcAAAAAAAPHg6eG1wbWV0YSB4bWxuczp4PSJhZG9iZTpuczptZXRhLyIgeDp4bXB0az0iWE1QIENvcmUgNi4wLjAiPgogICA8cmRmOlJERiB4bWxuczpyZGY9Imh0dHA6Ly93d3cudzMub3JnLzE5OTkvMDIvMjItcmRmLXN5bnRheC1ucyMiPgogICAgICA8cmRmOkRlc2NyaXB0aW9uIHJkZjphYm91dD0iIgogICAgICAgICAgICB4bWxuczp0aWZmPSJodHRwOi8vbnMuYWRvYmUuY29tL3RpZmYvMS4wLyIKICAgICAgICAgICAgeG1sbnM6ZXhpZj0iaHR0cDovL25zLmFkb2JlLmNvbS9leGlmLzEuMC8iPgogICAgICAgICA8dGlmZjpDb21wcmVzc2lvbj4xPC90aWZmOkNvbXByZXNzaW9uPgogICAgICAgICA8dGlmZjpSZXNvbHV0aW9uVW5pdD4yPC90aWZmOlJlc29sdXRpb25Vbml0PgogICAgICAgICA8dGlmZjpYUmVzb2x1dGlvbj4xNDQ8L3RpZmY6WFJlc29sdXRpb24+CiAgICAgICAgIDx0aWZmOllSZXNvbHV0aW9uPjE0NDwvdGlmZjpZUmVzb2x1dGlvbj4KICAgICAgICAgPHRpZmY6UGhvdG9tZXRyaWNJbnRlcnByZXRhdGlvbj4yPC90aWZmOlBob3RvbWV0cmljSW50ZXJwcmV0YXRpb24+CiAgICAgICAgIDx0aWZmOk9yaWVudGF0aW9uPjE8L3RpZmY6T3JpZW50YXRpb24+CiAgICAgICAgIDxleGlmOlBpeGVsWERpbWVuc2lvbj41ODwvZXhpZjpQaXhlbFhEaW1lbnNpb24+CiAgICAgICAgIDxleGlmOlVzZXJDb21tZW50PlNjcmVlbnNob3Q8L2V4aWY6VXNlckNvbW1lbnQ+CiAgICAgICAgIDxleGlmOlBpeGVsWURpbWVuc2lvbj41NjwvZXhpZjpQaXhlbFlEaW1lbnNpb24+CiAgICAgIDwvcmRmOkRlc2NyaXB0aW9uPgogICA8L3JkZjpSREY+CjwveDp4bXBtZXRhPgr/d52sAAAE3ElEQVRoBe2aXUxURxTHj6YvkthWlNYHK8Wm8Ss2GMQqiiIawVg0hFKxmGCMih99AI2WaqMo0dCYKA8Fgkoam2JtLNBICWIEREVBotYYTaOmUJv0xa/YJvhI/Q89w9yvZXfZvcxFT8LOuTNnL+e3Z+7M3Dkzovel0CsgI18BRoH4GnS4RfoNrwBVnKilU9Vn6cGDburp6aGIiAiaGTudlqckUm5O+oAYI3QfjE7VnqfCg6X06NFjR5iYmGgqO7yLZs+c5mijNehXRWV0tPJHR+fVBkS4uuqII6y2oGty91BDY4vKQjNmTKPUxQkU+9EU6n74t+jKt2/flTa+YLUENUOOihhFx78totTkjyUUK8UlJ+hQyXG+pKiocfR7Z628ZkW76cUMCUfHv/sORY4ZzT4byoK8HDpQuE3W4Vku2F8qr1nRKqJ2kOwoylWfpVFRwSYaG/mmWi30tNXb6MrVTqHbRVUbUDMkuuuLnhcWIIywjdVlFthrN+/SsvRcaf+k+5LUoWjRde0ga6pK6N6NetqwLosAzdLV9SelZGyhJ0//4SpR+ppaYDDkoE6QcBxdtHjPVrp1+Wcx4jIZw/I1yvt//KVeWvQhBfUFqXoK4At1FZSakiSrAasOOpU/nJFtag/gyiF7Rv2FZEe5jFuUTd1dD/mS2ptP0rPn/xqeT/wgVRVF0gbKkIAGCwmH0UXnJH8OVci8hHi6d79LLhERzZZfK+nDSe+xiShd77qDgYTHAFj16ScSou1Kp4RE5dc7N1sgUe8q6GAh4TAkf0t/RPtq+j7RZTettX+TcQ00VJBAinz7LZVP6HbPpWrkCmgoITF/Yh5VZSBI2IYdNByQmFpY/IEMO6gukGEF1QkybKChhMRiPXZ+JgXTXbl7hwU01JAZ2fliM4yd9veZZHsuQzoY6QoZ0ojqDBkyUN0hQwLqBchBg3oFclCgXoIMGtRrkEGBehEyYFCvQgYE6mVIv0G9DukX6HCAHBAU+6bm1F1S4hz6IHoCvhuQ4C3EvEDfkbfesi0Z0E0DMPa53TklPt2ww8b3RR7y0IEdlJW+hKt8lnaQyIA5bWT5vFmQjY5vL3DOKZ2OMwRb8/cRuvVAogMkfHQEbW7tS8HBKGrcWCo9steQEkA9uvWsRWssCR+0QXSBFM7gsIadxCVl90ZGzxd/m7cXS5OGpvbeyXErZRts0lbny3ZWOm7c6Z0wdanBrvy7Gm52vbSNKLYU1a2LBfPixI+CD6TX2859T+/HTJR12C1Hip1Fq0j+75Qt6OkzTeyzyE2aBx1kt85VlxtgS4+eFHkRHSEBYwta39ifLV6YaD0ggS8CtvzwbqhCMEDt++aYZQpxe3Rlf8ylLehvt+5Iu7TUhVI3K0jWYrOKBYMTgFl0gYQ/FlCc1FKdNXdbhuCy8MuNrBpKnSDhmOUs4MW269LhhLnxUjcrP/3SRHUNrdR6qcPcJI7DuLkYsDhgU2EBbW5tl2Y4UKiKCqdGXbXRLZLsmwEUI6a6GspcsZj8gcPNsKjI+yLH1WUdQ/hTGkBr6vrP3mE9i1SAU+Rwc8ylmSuXUsaKZNsssz8OuGVjAD3fclX+XydAL8FJmJeKAVRdDalGGJTwvKIrY/70ohhAcUyUj4UOBzg1IJb30bPNHRQfO9WzkVPhVP0/YBisTsNOVHMAAAAASUVORK5CYII=;fontFamily=Verdana;" vertex="1" parent="Cn9RMeOCZ9ZSjpGhhXbO-12">
          <mxGeometry x="104.46" y="13" width="31.08" height="30" as="geometry" />
        </mxCell>
        <mxCell id="Cn9RMeOCZ9ZSjpGhhXbO-16" value="" style="group;fontFamily=Verdana;" vertex="1" connectable="0" parent="1">
          <mxGeometry x="560" y="450" width="240" height="120" as="geometry" />
        </mxCell>
        <mxCell id="Cn9RMeOCZ9ZSjpGhhXbO-17" value="&lt;font color=&quot;#990000&quot;&gt;Prototyping&lt;/font&gt;" style="rounded=1;whiteSpace=wrap;html=1;fontStyle=1;fontSize=18;fillColor=#FCFCFC;fontColor=#333333;strokeColor=#666666;fontFamily=Verdana;" vertex="1" parent="Cn9RMeOCZ9ZSjpGhhXbO-16">
          <mxGeometry width="240" height="120" as="geometry" />
        </mxCell>
        <mxCell id="Cn9RMeOCZ9ZSjpGhhXbO-18" value="Build solution prototypes" style="text;html=1;strokeColor=none;fillColor=none;align=center;verticalAlign=middle;whiteSpace=wrap;rounded=0;fontSize=16;fontColor=#666666;fontFamily=Verdana;" vertex="1" parent="Cn9RMeOCZ9ZSjpGhhXbO-16">
          <mxGeometry x="10" y="74" width="220" height="30" as="geometry" />
        </mxCell>
        <mxCell id="Cn9RMeOCZ9ZSjpGhhXbO-37" value="" style="shape=image;verticalLabelPosition=bottom;labelBackgroundColor=default;verticalAlign=top;aspect=fixed;imageAspect=0;image=data:image/png,iVBORw0KGgoAAAANSUhEUgAAAEQAAABECAYAAAA4E5OyAAAEDmlDQ1BrQ0dDb2xvclNwYWNlR2VuZXJpY1JHQgAAOI2NVV1oHFUUPpu5syskzoPUpqaSDv41lLRsUtGE2uj+ZbNt3CyTbLRBkMns3Z1pJjPj/KRpKT4UQRDBqOCT4P9bwSchaqvtiy2itFCiBIMo+ND6R6HSFwnruTOzu5O4a73L3PnmnO9+595z7t4LkLgsW5beJQIsGq4t5dPis8fmxMQ6dMF90A190C0rjpUqlSYBG+PCv9rt7yDG3tf2t/f/Z+uuUEcBiN2F2Kw4yiLiZQD+FcWyXYAEQfvICddi+AnEO2ycIOISw7UAVxieD/Cyz5mRMohfRSwoqoz+xNuIB+cj9loEB3Pw2448NaitKSLLRck2q5pOI9O9g/t/tkXda8Tbg0+PszB9FN8DuPaXKnKW4YcQn1Xk3HSIry5ps8UQ/2W5aQnxIwBdu7yFcgrxPsRjVXu8HOh0qao30cArp9SZZxDfg3h1wTzKxu5E/LUxX5wKdX5SnAzmDx4A4OIqLbB69yMesE1pKojLjVdoNsfyiPi45hZmAn3uLWdpOtfQOaVmikEs7ovj8hFWpz7EV6mel0L9Xy23FMYlPYZenAx0yDB1/PX6dledmQjikjkXCxqMJS9WtfFCyH9XtSekEF+2dH+P4tzITduTygGfv58a5VCTH5PtXD7EFZiNyUDBhHnsFTBgE0SQIA9pfFtgo6cKGuhooeilaKH41eDs38Ip+f4At1Rq/sjr6NEwQqb/I/DQqsLvaFUjvAx+eWirddAJZnAj1DFJL0mSg/gcIpPkMBkhoyCSJ8lTZIxk0TpKDjXHliJzZPO50dR5ASNSnzeLvIvod0HG/mdkmOC0z8VKnzcQ2M/Yz2vKldduXjp9bleLu0ZWn7vWc+l0JGcaai10yNrUnXLP/8Jf59ewX+c3Wgz+B34Df+vbVrc16zTMVgp9um9bxEfzPU5kPqUtVWxhs6OiWTVW+gIfywB9uXi7CGcGW/zk98k/kmvJ95IfJn/j3uQ+4c5zn3Kfcd+AyF3gLnJfcl9xH3OfR2rUee80a+6vo7EK5mmXUdyfQlrYLTwoZIU9wsPCZEtP6BWGhAlhL3p2N6sTjRdduwbHsG9kq32sgBepc+xurLPW4T9URpYGJ3ym4+8zA05u44QjST8ZIoVtu3qE7fWmdn5LPdqvgcZz8Ww8BWJ8X3w0PhQ/wnCDGd+LvlHs8dRy6bLLDuKMaZ20tZrqisPJ5ONiCq8yKhYM5cCgKOu66Lsc0aYOtZdo5QCwezI4wm9J/v0X23mlZXOfBjj8Jzv3WrY5D+CsA9D7aMs2gGfjve8ArD6mePZSeCfEYt8CONWDw8FXTxrPqx/r9Vt4biXeANh8vV7/+/16ffMD1N8AuKD/A/8leAvFY9bLAAAAomVYSWZNTQAqAAAACAAGAQYAAwAAAAEAAgAAARIAAwAAAAEAAQAAARoABQAAAAEAAABWARsABQAAAAEAAABeASgAAwAAAAEAAgAAh2kABAAAAAEAAABmAAAAAAAAAJAAAAABAAAAkAAAAAEAA5KGAAcAAAASAAAAkKACAAQAAAABAAAARKADAAQAAAABAAAARAAAAABBU0NJSQAAAFNjcmVlbnNob3SmYOhoAAAACXBIWXMAABYlAAAWJQFJUiTwAAADUWlUWHRYTUw6Y29tLmFkb2JlLnhtcAAAAAAAPHg6eG1wbWV0YSB4bWxuczp4PSJhZG9iZTpuczptZXRhLyIgeDp4bXB0az0iWE1QIENvcmUgNi4wLjAiPgogICA8cmRmOlJERiB4bWxuczpyZGY9Imh0dHA6Ly93d3cudzMub3JnLzE5OTkvMDIvMjItcmRmLXN5bnRheC1ucyMiPgogICAgICA8cmRmOkRlc2NyaXB0aW9uIHJkZjphYm91dD0iIgogICAgICAgICAgICB4bWxuczp0aWZmPSJodHRwOi8vbnMuYWRvYmUuY29tL3RpZmYvMS4wLyIKICAgICAgICAgICAgeG1sbnM6ZXhpZj0iaHR0cDovL25zLmFkb2JlLmNvbS9leGlmLzEuMC8iPgogICAgICAgICA8dGlmZjpDb21wcmVzc2lvbj4xPC90aWZmOkNvbXByZXNzaW9uPgogICAgICAgICA8dGlmZjpSZXNvbHV0aW9uVW5pdD4yPC90aWZmOlJlc29sdXRpb25Vbml0PgogICAgICAgICA8dGlmZjpYUmVzb2x1dGlvbj4xNDQ8L3RpZmY6WFJlc29sdXRpb24+CiAgICAgICAgIDx0aWZmOllSZXNvbHV0aW9uPjE0NDwvdGlmZjpZUmVzb2x1dGlvbj4KICAgICAgICAgPHRpZmY6UGhvdG9tZXRyaWNJbnRlcnByZXRhdGlvbj4yPC90aWZmOlBob3RvbWV0cmljSW50ZXJwcmV0YXRpb24+CiAgICAgICAgIDx0aWZmOk9yaWVudGF0aW9uPjE8L3RpZmY6T3JpZW50YXRpb24+CiAgICAgICAgIDxleGlmOlBpeGVsWERpbWVuc2lvbj42ODwvZXhpZjpQaXhlbFhEaW1lbnNpb24+CiAgICAgICAgIDxleGlmOlVzZXJDb21tZW50PlNjcmVlbnNob3Q8L2V4aWY6VXNlckNvbW1lbnQ+CiAgICAgICAgIDxleGlmOlBpeGVsWURpbWVuc2lvbj42ODwvZXhpZjpQaXhlbFlEaW1lbnNpb24+CiAgICAgIDwvcmRmOkRlc2NyaXB0aW9uPgogICA8L3JkZjpSREY+CjwveDp4bXBtZXRhPgqZaRgLAAAG4klEQVR4Ae2aa2wUVRTHD36jH/zA45OiaGKUJqAGagVs+vDRaiiVaKBYBNOEPmgjLdQuj1ZWaGm3VLpNWmjBVFrbWAgRSVEgESRR8YGJERJC1PrWD5aa6Ifyce1/9Gx27rzu3ZnZrclMsrlz78w998xvzt5z7rkzKzZ9UHDECdwWPwtONAIBEMEQAiABEIGAUA0sJAAiEBCqabeQyT//pp37DtGCzEJ6IGsN9Q+eElRMbXVWuuIQgOjsHabht0/T1NSU7qnnz59H9bUbqXLTGl17KiopB2IHQnxggIlGdlBRQbZ4ybd6yoA4gSgqzKPffv+Drl27bnjYJUsyKVRXnhIwvgORAREOVdB99y7QQJy7+Dm1dw2kDYxvQFRBiGaRLjCeA3ELIt1gPAPiNYh0gXENxG8QZmDqGtto4uakeIm8mHxdAYl0D1FP/4ghjoCm8BqJk6VBe5cNfcdOUbRn0HMwSQFBNNnVM0QTEzcNj+U3CHFAJzBHok1xDyb2NasrAZlJIMSHsQPzdGE+7QltlgIjBeSLr67TxordM8IiRBBi3Q7MurXFdKijUeyiq0sBKV6/jS5/ekXXcfHiTDrarWaOOgE+VwBmd/igYZTJHz8ytCU2SK12V2Y/mNhHO0eI/VrkKH37/S+Ga+luwF872jtkUGPhPXcZ2sQGKQtBp9FTH1C4tccwq2dkZNCG9SXUULOB5s65XZSf0jqi27pQu+lfe93zq2jfrmpHHaWB8JPBFFs6DtOtqVvcpJUAU1tZRqGtG3XtqagARCQ6QFevGheGql5PGQgeEMHYgZ63aHj0tAFMKnMZ+Ltub+qiTy7r5zfoiDmuY+9WeuThTFSlj6SAsHSAeXnnATp3/hI3xUsvosa4MOEEIDB/nT3/oXDlXxA76pNPFbgCwtpAwXDkiCUY1eCI5Yql3TJh/ry5VFe7iapecpdl8wQIK263ZFcJjlheYom8q1m6cXbGbGpqrHYNgsdKGghcW0HOMtPoT5vtTRZgyXgkq+gYIDaUltArtS8aPAcsafynX5XnDw0KkswqR9+xd2L3L3s2Nufux7RfWUVz7Jvxn01FHH5z+t6lJfF7uc+di56KtUcHTftw49kLn+nG4b4oq7e3x25O/sW36kroB/m4L6+4IgY5Koe0hdi5thXLs+hYb9jwpkBc1SPZjePkQssqmy3nMdmcrBSQLQ0ROn7yDP/N4iVcm+yMDjDN+w+byoFHqipfSyMn3nPtQu3mMQRnhzpDcf3NTqSAzF2YY+i7ubyU2l+tMbQ7Ndh5JLGvCnCx7469vXR0YFTXDE9048t3dW1iRWotA7LigcHyV1cqr2WQXR/p30cjA51a8CTKRR2Kt4a30aWxfuWtB1gI9BJhQC7cstMhZSEQYmeKblwq5HJK0I0LdYpaZVfm0kCYrF+LPIDJemiR6cTMY5uVXketykBYqXQv8vyKWpMGAjCqLpVhui39jFpdAeEHc3KpsjEAy7Mqk4larWRZtXsChIXbuVTEGsku8rSJ12Xih3V0LFXCWtyLkHnax8eW5pVppVl/hMu5qyoMITvCabtQX5QFOQi/E8N2Pn+hoslyycDLC+hpFeKLY3Fd2kLw9gdGxgwrTruEUKJLTXwzTos8JxdqlfjRPOD+Xl0KkccqLys2XYgm6oVzKSDTCzE6EH1D7EuIG3Jzsh136Ky2BljZtuYtmmy3LtRukscACPac8iVSQMxCd9mkLVO0UxZWVpC/nMbOXDBsiyaT+MFYZpk8jHPjiv03bFKhO9YU4jH2/kXtGzEMLnMgI4+1z9cfnyRxKYAt0eMnxnQwYH14o1h7OL3VxPGhT3N7n+mqtyD30cRbTc+lLAQ97QKxplCV8gdyVh7JLvFj+gT/NQKE5Ud8CulFaSAYF4PaZdvDu2qodM0TdnobrmHixSdU343/QKufeVxq70QUgvikJdKnszDcw3BVVuVKQFgRgDH7j+K6n9l2Hp9LPwK1pICwQjD7bbu7DPu+uL5yRRa93lIv5epYnmwJq/JqY0oc0xUQFsZmb/ZJJVID3W0NyqtYlp1Y4iuE0J5u0x06pDEPtrp/AZ4AYaX9Sg24jU9YP5nSUyA8oJ1HUtn/ZRcKlyweiE+iHTuVM2qiHLHuCxAM4uSR7L5lR18vXKj4sDJ134Dw4KoeyUsXyjqolL4DYWXsPBJcdelzRaYf8nEsYbZDx7K9LFMGhJW280h8D5dOG1N8n5dlyoGw8lYeCde9cqE8llLJiZF0ldj/vWPRk1oSCEkl1b1Yr/VOm4WIbw1Bl+rXPqIML+ozBogXD+OFDKl8iBcD/V9kBECENxUACYAIBIRqYCEBEIGAUA0sJAAiEBCq/wBy2Vc47ivroQAAAABJRU5ErkJggg==;fontFamily=Verdana;" vertex="1" parent="Cn9RMeOCZ9ZSjpGhhXbO-16">
          <mxGeometry x="102.5" y="11" width="35" height="35" as="geometry" />
        </mxCell>
        <mxCell id="Cn9RMeOCZ9ZSjpGhhXbO-20" value="" style="group;fontFamily=Verdana;" vertex="1" connectable="0" parent="1">
          <mxGeometry x="80" y="450" width="240" height="120" as="geometry" />
        </mxCell>
        <mxCell id="Cn9RMeOCZ9ZSjpGhhXbO-21" value="&lt;font color=&quot;#990000&quot;&gt;Launch&lt;/font&gt;" style="rounded=1;whiteSpace=wrap;html=1;fontStyle=1;fontSize=18;fillColor=#FCFCFC;fontColor=#333333;strokeColor=#666666;fontFamily=Verdana;" vertex="1" parent="Cn9RMeOCZ9ZSjpGhhXbO-20">
          <mxGeometry width="240" height="120" as="geometry" />
        </mxCell>
        <mxCell id="Cn9RMeOCZ9ZSjpGhhXbO-22" value="Launch and pitch solutions" style="text;html=1;strokeColor=none;fillColor=none;align=center;verticalAlign=middle;whiteSpace=wrap;rounded=0;fontSize=16;fontColor=#666666;fontFamily=Verdana;" vertex="1" parent="Cn9RMeOCZ9ZSjpGhhXbO-20">
          <mxGeometry x="10" y="74" width="220" height="30" as="geometry" />
        </mxCell>
        <mxCell id="Cn9RMeOCZ9ZSjpGhhXbO-38" value="" style="shape=image;verticalLabelPosition=bottom;labelBackgroundColor=default;verticalAlign=top;aspect=fixed;imageAspect=0;image=data:image/png,iVBORw0KGgoAAAANSUhEUgAAAEAAAABGCAYAAAB8MJLDAAAEDmlDQ1BrQ0dDb2xvclNwYWNlR2VuZXJpY1JHQgAAOI2NVV1oHFUUPpu5syskzoPUpqaSDv41lLRsUtGE2uj+ZbNt3CyTbLRBkMns3Z1pJjPj/KRpKT4UQRDBqOCT4P9bwSchaqvtiy2itFCiBIMo+ND6R6HSFwnruTOzu5O4a73L3PnmnO9+595z7t4LkLgsW5beJQIsGq4t5dPis8fmxMQ6dMF90A190C0rjpUqlSYBG+PCv9rt7yDG3tf2t/f/Z+uuUEcBiN2F2Kw4yiLiZQD+FcWyXYAEQfvICddi+AnEO2ycIOISw7UAVxieD/Cyz5mRMohfRSwoqoz+xNuIB+cj9loEB3Pw2448NaitKSLLRck2q5pOI9O9g/t/tkXda8Tbg0+PszB9FN8DuPaXKnKW4YcQn1Xk3HSIry5ps8UQ/2W5aQnxIwBdu7yFcgrxPsRjVXu8HOh0qao30cArp9SZZxDfg3h1wTzKxu5E/LUxX5wKdX5SnAzmDx4A4OIqLbB69yMesE1pKojLjVdoNsfyiPi45hZmAn3uLWdpOtfQOaVmikEs7ovj8hFWpz7EV6mel0L9Xy23FMYlPYZenAx0yDB1/PX6dledmQjikjkXCxqMJS9WtfFCyH9XtSekEF+2dH+P4tzITduTygGfv58a5VCTH5PtXD7EFZiNyUDBhHnsFTBgE0SQIA9pfFtgo6cKGuhooeilaKH41eDs38Ip+f4At1Rq/sjr6NEwQqb/I/DQqsLvaFUjvAx+eWirddAJZnAj1DFJL0mSg/gcIpPkMBkhoyCSJ8lTZIxk0TpKDjXHliJzZPO50dR5ASNSnzeLvIvod0HG/mdkmOC0z8VKnzcQ2M/Yz2vKldduXjp9bleLu0ZWn7vWc+l0JGcaai10yNrUnXLP/8Jf59ewX+c3Wgz+B34Df+vbVrc16zTMVgp9um9bxEfzPU5kPqUtVWxhs6OiWTVW+gIfywB9uXi7CGcGW/zk98k/kmvJ95IfJn/j3uQ+4c5zn3Kfcd+AyF3gLnJfcl9xH3OfR2rUee80a+6vo7EK5mmXUdyfQlrYLTwoZIU9wsPCZEtP6BWGhAlhL3p2N6sTjRdduwbHsG9kq32sgBepc+xurLPW4T9URpYGJ3ym4+8zA05u44QjST8ZIoVtu3qE7fWmdn5LPdqvgcZz8Ww8BWJ8X3w0PhQ/wnCDGd+LvlHs8dRy6bLLDuKMaZ20tZrqisPJ5ONiCq8yKhYM5cCgKOu66Lsc0aYOtZdo5QCwezI4wm9J/v0X23mlZXOfBjj8Jzv3WrY5D+CsA9D7aMs2gGfjve8ArD6mePZSeCfEYt8CONWDw8FXTxrPqx/r9Vt4biXeANh8vV7/+/16ffMD1N8AuKD/A/8leAvFY9bLAAAAomVYSWZNTQAqAAAACAAGAQYAAwAAAAEAAgAAARIAAwAAAAEAAQAAARoABQAAAAEAAABWARsABQAAAAEAAABeASgAAwAAAAEAAgAAh2kABAAAAAEAAABmAAAAAAAAAJAAAAABAAAAkAAAAAEAA5KGAAcAAAASAAAAkKACAAQAAAABAAAAQKADAAQAAAABAAAARgAAAABBU0NJSQAAAFNjcmVlbnNob3TDbGgjAAAACXBIWXMAABYlAAAWJQFJUiTwAAADUWlUWHRYTUw6Y29tLmFkb2JlLnhtcAAAAAAAPHg6eG1wbWV0YSB4bWxuczp4PSJhZG9iZTpuczptZXRhLyIgeDp4bXB0az0iWE1QIENvcmUgNi4wLjAiPgogICA8cmRmOlJERiB4bWxuczpyZGY9Imh0dHA6Ly93d3cudzMub3JnLzE5OTkvMDIvMjItcmRmLXN5bnRheC1ucyMiPgogICAgICA8cmRmOkRlc2NyaXB0aW9uIHJkZjphYm91dD0iIgogICAgICAgICAgICB4bWxuczp0aWZmPSJodHRwOi8vbnMuYWRvYmUuY29tL3RpZmYvMS4wLyIKICAgICAgICAgICAgeG1sbnM6ZXhpZj0iaHR0cDovL25zLmFkb2JlLmNvbS9leGlmLzEuMC8iPgogICAgICAgICA8dGlmZjpDb21wcmVzc2lvbj4xPC90aWZmOkNvbXByZXNzaW9uPgogICAgICAgICA8dGlmZjpSZXNvbHV0aW9uVW5pdD4yPC90aWZmOlJlc29sdXRpb25Vbml0PgogICAgICAgICA8dGlmZjpYUmVzb2x1dGlvbj4xNDQ8L3RpZmY6WFJlc29sdXRpb24+CiAgICAgICAgIDx0aWZmOllSZXNvbHV0aW9uPjE0NDwvdGlmZjpZUmVzb2x1dGlvbj4KICAgICAgICAgPHRpZmY6UGhvdG9tZXRyaWNJbnRlcnByZXRhdGlvbj4yPC90aWZmOlBob3RvbWV0cmljSW50ZXJwcmV0YXRpb24+CiAgICAgICAgIDx0aWZmOk9yaWVudGF0aW9uPjE8L3RpZmY6T3JpZW50YXRpb24+CiAgICAgICAgIDxleGlmOlBpeGVsWERpbWVuc2lvbj42NDwvZXhpZjpQaXhlbFhEaW1lbnNpb24+CiAgICAgICAgIDxleGlmOlVzZXJDb21tZW50PlNjcmVlbnNob3Q8L2V4aWY6VXNlckNvbW1lbnQ+CiAgICAgICAgIDxleGlmOlBpeGVsWURpbWVuc2lvbj43MDwvZXhpZjpQaXhlbFlEaW1lbnNpb24+CiAgICAgIDwvcmRmOkRlc2NyaXB0aW9uPgogICA8L3JkZjpSREY+CjwveDp4bXBtZXRhPgpeFBBsAAAIDElEQVR4Ae1aa1BVVRReOP2RfOUjTc3nlIqDgoAmigrloxmxIZ3RRhrNRxYyho6apNlVfIAyijUoRDLoiEolWjjlI8EyUcNRwFQsUdKanMweaPiT+M7M2ux97rmXcy5w72Uue+bMXvtx9lnr22uvvfbax6+2LpEPpzY+LLsmeisArRrg4wi0LgEfVwBq1QBf14AnWjIAP1y+RpfLb1DVnd/pfEmZJsrNm1VUU1NjKNaY8DD6cv82pc2vJXmCEDjnwFG6XlFJ5eXXFEHMFh5UnVG6er0GsNCFRefo/v0/FeabouC1ABwrvEApadkNznS//n2oZ4/uNHTIQOrUoR0FDRsscBnYryc9N+BZ6tIvQtTpCa8D4MFf1fR+cgblfVqg51UrQ+CJkeE0YWwoTYkaZdjHSqVXAQB1j1u2iW7f/kWRoVvXLjQ3NoamT4vSZlRpbGTBawCA8NNnL1UsOAS3rY6nWTEvNVJMx697BQBGws+cMZWS3nubunTu4Jj7JmjxOAA/37prN/MbbcvorbkxTSAeEWyKs+RxAF6bn6iovSPh846cotIrNzRZYO1fjY40ZQ9KSq87k588CsCq9emKwVuRsMBu5g8e/oZsm9LtfIAt27Po5cmRtGPz8kYtE48dhqD6WdkHxeyEjw6jVQlzRBlERs5hWrx0nZ3w3Onr40U0eXqcUzUvLa/g7hQYGCBoJjwGwJsJG5gHauvflnLSbaIMAo7Qapvqt0MAPNgdOGHLnDF3BRft8n+qH9nVyRUeAQDCyb78mpX21j49K0/wCYBys1PpdEGm9pw9sZemTJ4g2jEWdhKjdL6kXFS/EDZM0Ex4BAC4uJwwm0YWv/hcCXchACR7fdgaczOTFE3ILygS/WWisrJKFIMCBwmaCbcDoJ/9tC2JzIvIYR/k9OK4ULko6JCQQEHf/e2eoJmAVshH45DhXgCAPPtYz/LMMuOdO3VkUsv//vehUuZCdfV/TFLH9u0EzUTht/VaBE3DwUif3KoB+tlftXSenh+tDBXHuueUk2t/MIKWlJZd5S7Up3cPQTNx7FQxkyRri6isI9wKgJnZZ+bGR9Sf9PI+P0qJSTvFdgcgo2cuEeoNsHBQkhMAunKl3jBGTxkvNwvabREhMD173nLxYVh1I/XnDnBhh4+dQY9rHnOVw3zhvFmUvHax0h63PIUAHBIA+vXaCaWdC27TACuzD+awDPJz05SlwEzLObZDvfAAr+CrQtEtdtYrgtYTbgEAHp287zta+3rmRgYHUNHR3dqeL9sE9ENgBOcGbIf69Ea8TVke82On6buIcqPOAliXHI0VIxoQiNRycmT5uV2fw3KzkFhGSBzq0vdFOTltD50trrf+mH0j68/vugyAvMZ4MDO52dk3GsuZzUB/aNrWtE/Eq9CSFfGvi7IR4dISwIfYwBgN6qgOQY6GhHD0bkP14Ek+O2DJHNyd3OBJ0bIGGH3ImZFhxuGGNkdoCwbvncRUwsmQE4SHAXWm+tyXcDFiNh3IP1nbue9Y8fQaMrH2wqWrZl9v8n4ZOfm1vYdMEvyAN6s8mfYD9HE7RhmW2t0JxnBN0kdKMAU8YM3v2raarPBkagl4i/AQHP6EvKUy+HCGYPCsBlFNacDgsBglKtOtW1cKHRFIEeHBFBURam6tMacu5HBrEUAxEhzbataONS7zYAqA3gGTnLqk/v7+FBw0lMaMCqLguqupSZEjXRDT/hUIvi4lSzFw3AuCY0tt7K5iCgAEJjOyP1MOF8yIUd6/f186fminZXXksWDZU9P30b4DXwiPjttwrE2In2MYROE+VnJTAMgDYh0i0Hj2QhldLvvRoWYY3cXL4ziiM/ccpg0pGc0uOH/fMgD8IudQ01PfXaQz5y5RxU+3qOr2HW7Swtb7MteLckNE5LRFduscuw38DFcMXEPfQ3ujAdB/ZEL0ImWpwPvbmfquvptdGZolH5fRwR3XYy65wnbcSxWH9mzV9mOugssM79FKwjo/X7hfA87qtmblO+jbaABwZSUnMHzi0C4lYgsf3QoIPZ7p7vK2JvNihnYZAKgs1mxcgk07gsofAwh7szYpwQyA4Ch2L7/rbtoyADB6EBzrlR0THEH1wsEd1Ud0cP+v7+dugfXfswQA1Dhq6gIhOA8Gp+Spju25KHKAkLpxpSgjRg8QAKK3JNMAQOWhxvJFA4xV+vYPtOsqR0dPHIERuuKE9+V7Qa73VG4aADmoib0ZV9kVF4/YnfHhxenVHFdf6M+Jlw6XPZmbAgACyUxDrfVX2SzEksStmprrQdD3h0Z5QzIFgHzxiDO3o8gO1vax46e1ZYK1rhcStoLT6e8vMqnlsoYpDc1cMAXA1euVgo1RIfZXzNxoS/mYSXqybpnoT2oBgwaIdvnaOnbRWkXDevV8WvRrbsIUAA8f1V9CGt3BgUnMNmafE05s+jRuTIio4msrCC/H86BhH252/MODGKCJCFMA3Lv3h/ic/CsqV0L4hfFruah5gUZ3/hPHq3ECI+HhRTa3+ysYrSNMhcTkn5TL6v7UauPnR7iyxl9bJwuL7WJz+LnRKEEwzDCfGPUz727hwaMpAGRh8HeWs4TYnCMjifcGPz9AAMDjABRPCI/vm1oCzKiznJ0i/UWl/p2I0SOUKk8KD0ZMxQOMfjfnLQ0/Hln5cxuOEl97e1p40wAoU9YEBYCAPzj122QTDG15CFMaYHnUFvRCk9mAFiSzwmorAAocPlho1QAfnHRF5FYNUODwwYLPa8D/1SQVfzQ46owAAAAASUVORK5CYII=;fontFamily=Verdana;" vertex="1" parent="Cn9RMeOCZ9ZSjpGhhXbO-20">
          <mxGeometry x="103.09" y="8" width="33.83" height="37" as="geometry" />
        </mxCell>
        <mxCell id="Cn9RMeOCZ9ZSjpGhhXbO-24" value="" style="group;fontFamily=Verdana;" vertex="1" connectable="0" parent="1">
          <mxGeometry x="80" y="280" width="240" height="120" as="geometry" />
        </mxCell>
        <mxCell id="Cn9RMeOCZ9ZSjpGhhXbO-25" value="&lt;font color=&quot;#990000&quot;&gt;Evaluate&lt;/font&gt;" style="rounded=1;whiteSpace=wrap;html=1;fontStyle=1;fontSize=18;fillColor=#FCFCFC;fontColor=#333333;strokeColor=#666666;fontFamily=Verdana;" vertex="1" parent="Cn9RMeOCZ9ZSjpGhhXbO-24">
          <mxGeometry width="240" height="120" as="geometry" />
        </mxCell>
        <mxCell id="Cn9RMeOCZ9ZSjpGhhXbO-26" value="Test and Refine solutions" style="text;html=1;strokeColor=none;fillColor=none;align=center;verticalAlign=middle;whiteSpace=wrap;rounded=0;fontSize=16;fontColor=#666666;fontFamily=Verdana;" vertex="1" parent="Cn9RMeOCZ9ZSjpGhhXbO-24">
          <mxGeometry x="10" y="74" width="220" height="30" as="geometry" />
        </mxCell>
        <mxCell id="Cn9RMeOCZ9ZSjpGhhXbO-39" value="" style="shape=image;verticalLabelPosition=bottom;labelBackgroundColor=default;verticalAlign=top;aspect=fixed;imageAspect=0;image=data:image/png,iVBORw0KGgoAAAANSUhEUgAAACoAAABICAYAAACA/2cKAAAEDmlDQ1BrQ0dDb2xvclNwYWNlR2VuZXJpY1JHQgAAOI2NVV1oHFUUPpu5syskzoPUpqaSDv41lLRsUtGE2uj+ZbNt3CyTbLRBkMns3Z1pJjPj/KRpKT4UQRDBqOCT4P9bwSchaqvtiy2itFCiBIMo+ND6R6HSFwnruTOzu5O4a73L3PnmnO9+595z7t4LkLgsW5beJQIsGq4t5dPis8fmxMQ6dMF90A190C0rjpUqlSYBG+PCv9rt7yDG3tf2t/f/Z+uuUEcBiN2F2Kw4yiLiZQD+FcWyXYAEQfvICddi+AnEO2ycIOISw7UAVxieD/Cyz5mRMohfRSwoqoz+xNuIB+cj9loEB3Pw2448NaitKSLLRck2q5pOI9O9g/t/tkXda8Tbg0+PszB9FN8DuPaXKnKW4YcQn1Xk3HSIry5ps8UQ/2W5aQnxIwBdu7yFcgrxPsRjVXu8HOh0qao30cArp9SZZxDfg3h1wTzKxu5E/LUxX5wKdX5SnAzmDx4A4OIqLbB69yMesE1pKojLjVdoNsfyiPi45hZmAn3uLWdpOtfQOaVmikEs7ovj8hFWpz7EV6mel0L9Xy23FMYlPYZenAx0yDB1/PX6dledmQjikjkXCxqMJS9WtfFCyH9XtSekEF+2dH+P4tzITduTygGfv58a5VCTH5PtXD7EFZiNyUDBhHnsFTBgE0SQIA9pfFtgo6cKGuhooeilaKH41eDs38Ip+f4At1Rq/sjr6NEwQqb/I/DQqsLvaFUjvAx+eWirddAJZnAj1DFJL0mSg/gcIpPkMBkhoyCSJ8lTZIxk0TpKDjXHliJzZPO50dR5ASNSnzeLvIvod0HG/mdkmOC0z8VKnzcQ2M/Yz2vKldduXjp9bleLu0ZWn7vWc+l0JGcaai10yNrUnXLP/8Jf59ewX+c3Wgz+B34Df+vbVrc16zTMVgp9um9bxEfzPU5kPqUtVWxhs6OiWTVW+gIfywB9uXi7CGcGW/zk98k/kmvJ95IfJn/j3uQ+4c5zn3Kfcd+AyF3gLnJfcl9xH3OfR2rUee80a+6vo7EK5mmXUdyfQlrYLTwoZIU9wsPCZEtP6BWGhAlhL3p2N6sTjRdduwbHsG9kq32sgBepc+xurLPW4T9URpYGJ3ym4+8zA05u44QjST8ZIoVtu3qE7fWmdn5LPdqvgcZz8Ww8BWJ8X3w0PhQ/wnCDGd+LvlHs8dRy6bLLDuKMaZ20tZrqisPJ5ONiCq8yKhYM5cCgKOu66Lsc0aYOtZdo5QCwezI4wm9J/v0X23mlZXOfBjj8Jzv3WrY5D+CsA9D7aMs2gGfjve8ArD6mePZSeCfEYt8CONWDw8FXTxrPqx/r9Vt4biXeANh8vV7/+/16ffMD1N8AuKD/A/8leAvFY9bLAAAAomVYSWZNTQAqAAAACAAGAQYAAwAAAAEAAgAAARIAAwAAAAEAAQAAARoABQAAAAEAAABWARsABQAAAAEAAABeASgAAwAAAAEAAgAAh2kABAAAAAEAAABmAAAAAAAAAJAAAAABAAAAkAAAAAEAA5KGAAcAAAASAAAAkKACAAQAAAABAAAAKqADAAQAAAABAAAASAAAAABBU0NJSQAAAFNjcmVlbnNob3Tbe05QAAAACXBIWXMAABYlAAAWJQFJUiTwAAADUWlUWHRYTUw6Y29tLmFkb2JlLnhtcAAAAAAAPHg6eG1wbWV0YSB4bWxuczp4PSJhZG9iZTpuczptZXRhLyIgeDp4bXB0az0iWE1QIENvcmUgNi4wLjAiPgogICA8cmRmOlJERiB4bWxuczpyZGY9Imh0dHA6Ly93d3cudzMub3JnLzE5OTkvMDIvMjItcmRmLXN5bnRheC1ucyMiPgogICAgICA8cmRmOkRlc2NyaXB0aW9uIHJkZjphYm91dD0iIgogICAgICAgICAgICB4bWxuczp0aWZmPSJodHRwOi8vbnMuYWRvYmUuY29tL3RpZmYvMS4wLyIKICAgICAgICAgICAgeG1sbnM6ZXhpZj0iaHR0cDovL25zLmFkb2JlLmNvbS9leGlmLzEuMC8iPgogICAgICAgICA8dGlmZjpDb21wcmVzc2lvbj4xPC90aWZmOkNvbXByZXNzaW9uPgogICAgICAgICA8dGlmZjpSZXNvbHV0aW9uVW5pdD4yPC90aWZmOlJlc29sdXRpb25Vbml0PgogICAgICAgICA8dGlmZjpYUmVzb2x1dGlvbj4xNDQ8L3RpZmY6WFJlc29sdXRpb24+CiAgICAgICAgIDx0aWZmOllSZXNvbHV0aW9uPjE0NDwvdGlmZjpZUmVzb2x1dGlvbj4KICAgICAgICAgPHRpZmY6UGhvdG9tZXRyaWNJbnRlcnByZXRhdGlvbj4yPC90aWZmOlBob3RvbWV0cmljSW50ZXJwcmV0YXRpb24+CiAgICAgICAgIDx0aWZmOk9yaWVudGF0aW9uPjE8L3RpZmY6T3JpZW50YXRpb24+CiAgICAgICAgIDxleGlmOlBpeGVsWERpbWVuc2lvbj40MjwvZXhpZjpQaXhlbFhEaW1lbnNpb24+CiAgICAgICAgIDxleGlmOlVzZXJDb21tZW50PlNjcmVlbnNob3Q8L2V4aWY6VXNlckNvbW1lbnQ+CiAgICAgICAgIDxleGlmOlBpeGVsWURpbWVuc2lvbj43MjwvZXhpZjpQaXhlbFlEaW1lbnNpb24+CiAgICAgIDwvcmRmOkRlc2NyaXB0aW9uPgogICA8L3JkZjpSREY+CjwveDp4bXBtZXRhPgoYUszQAAAEc0lEQVRoBe1Za0gUURQ+RX+0J5p/ej+IHrBQpkXhj8UeShglGZlG2UMtCypJy1LbEitDQnpqhukPSQh2IQN7muWPUqFEqaQyyyjERw+L7efWGZjxzsydmTu7dwJjDix77rnnnvPd7z529swI31+BYSAjhwFGAaINlPdK2YzajPJmgHe8UbwD0uI1v3gF50tr4HFjE3i9XggLmwgR4Q44fjgV5syaShuiso2w+sIvrfTAMdc5VWI0BAcHQ/nFkxAbvZTaTxotBXqnvgmSdxwi86l0BFt/+5ohs5ZeT0UlFRKwoOAgKHRlQnVFMaTuSJTsuBVcRVeltpZi2R59+/4TtLW9kvIWF2ZDYvxKoS0udXlFjdB+0tgs+WkpljHa+eGLLKcIUjQ6oyJEVThgUkNDsQzo7BmTZClxv5LyoVs+EbKPplsGFK+dsImhUs7cggsggi2r8kDh2VKpb/mySEnXUiw99XpXEwkID5i4b0k7qQfM6MDXQbj3qFn4oE7K7pR4iI1xkiaVjjeBEUhhEF74/krT85e+KfNX+0KmRwkf1NGmlCvX3b65i9dJfugf7kzy3XDfV7pqtgNa+nmR8dDX1y9jCX8eO1o8MpvYwJ/Sr99+Ah401p9Ocazf9yjek0qQGBRt2EcDsmTRAjGv6W+/92jIhPGayWggNZ0ZO/wGGhoyjnpQNiXEMaY25xbQHsVTnnfqCtQ3PBWyRjuXQcHRPYCT4C0BAeUNRi+eqcOEp9Zzu0GKFx/nBL0DgofKXfsIvg/+EsYsdMyFTetXSOPNKMyMaj1b1nnKqGBxWyyM2qh64Mg6sAuOHNhmBqPgy3yYWts6qMGRMZq0tL5WgUS/9tfvaO6GNualRxYwyecvvfCuswt+e38bBicdHI4FMHbMaDh/Oos0M+vMQDFidVmBENi5Nh3a24ceilmyNdSWsbhp+jAvvWaEf9RhA+VNtM2ozShvBnjHs/eozShvBnjHs/eozShvBnjH+3/3KP4X6unpNU0Y/tELREwzuj+nWFbKwX+WNFEWcjfvzAFltY82TstmCmjGoSKouzv0Zw4LsMqSt5gIyzrkS4Wuro+wfZ9L7Db/rVnnU3Rg6VAsL4plw/6BHwovdTMpLVc2LjktT+3EYAEGH6HmSYKcPH+V701nN8tQH04Ga6HkeJy0WTEEqizWYkJasVYvMYLFyZFg6x4+0xui6tPdo7j5MzJPyQoJWMrWK+PQNh8WzdzVJYAvxURJ3ZcPWCJiFV2gCSlZgIdAFCwpYl3eH8HJ5WbvkYbiG7utaceYbwJNoFvS82Vv3vCEXy4+LCXyR8FJkjcBVqdjNmQwhaICPVNSJbuGZsycBpWXXEwBjZzO5O8F8r0SrhiSYiSqal6N5wHsPXjCaBz3fmQaJ6ElKkZLK25q+Vpqr665pRtfBTRxQ6zuAKs6166J1g2tWnr0xgcI5dth3SgBdrK8d6ICDTCvJcNVS29JFg5BbaAcSJSFsBmV0cGhYTPKgURZCJtRGR0cGjajHEiUhfgDjHiMYgjltRcAAAAASUVORK5CYII=;fontFamily=Verdana;" vertex="1" parent="Cn9RMeOCZ9ZSjpGhhXbO-24">
          <mxGeometry x="106.88" y="5" width="26.25" height="45" as="geometry" />
        </mxCell>
        <mxCell id="Cn9RMeOCZ9ZSjpGhhXbO-29" style="edgeStyle=orthogonalEdgeStyle;rounded=0;orthogonalLoop=1;jettySize=auto;html=1;exitX=1;exitY=0.5;exitDx=0;exitDy=0;entryX=0;entryY=0.5;entryDx=0;entryDy=0;fontFamily=Verdana;" edge="1" parent="1" source="Cn9RMeOCZ9ZSjpGhhXbO-1" target="Cn9RMeOCZ9ZSjpGhhXbO-6">
          <mxGeometry relative="1" as="geometry" />
        </mxCell>
        <mxCell id="Cn9RMeOCZ9ZSjpGhhXbO-30" style="edgeStyle=orthogonalEdgeStyle;rounded=0;orthogonalLoop=1;jettySize=auto;html=1;exitX=0.5;exitY=1;exitDx=0;exitDy=0;entryX=0.5;entryY=0;entryDx=0;entryDy=0;fontFamily=Verdana;" edge="1" parent="1" source="Cn9RMeOCZ9ZSjpGhhXbO-6" target="Cn9RMeOCZ9ZSjpGhhXbO-13">
          <mxGeometry relative="1" as="geometry" />
        </mxCell>
        <mxCell id="Cn9RMeOCZ9ZSjpGhhXbO-31" style="edgeStyle=orthogonalEdgeStyle;rounded=0;orthogonalLoop=1;jettySize=auto;html=1;exitX=0.5;exitY=1;exitDx=0;exitDy=0;entryX=0.5;entryY=0;entryDx=0;entryDy=0;fontFamily=Verdana;" edge="1" parent="1" source="Cn9RMeOCZ9ZSjpGhhXbO-13" target="Cn9RMeOCZ9ZSjpGhhXbO-17">
          <mxGeometry relative="1" as="geometry" />
        </mxCell>
        <mxCell id="Cn9RMeOCZ9ZSjpGhhXbO-32" style="edgeStyle=orthogonalEdgeStyle;rounded=0;orthogonalLoop=1;jettySize=auto;html=1;exitX=0;exitY=0.5;exitDx=0;exitDy=0;entryX=1;entryY=0.5;entryDx=0;entryDy=0;fontFamily=Verdana;" edge="1" parent="1" source="Cn9RMeOCZ9ZSjpGhhXbO-17" target="Cn9RMeOCZ9ZSjpGhhXbO-21">
          <mxGeometry relative="1" as="geometry" />
        </mxCell>
        <mxCell id="Cn9RMeOCZ9ZSjpGhhXbO-33" style="edgeStyle=orthogonalEdgeStyle;rounded=0;orthogonalLoop=1;jettySize=auto;html=1;exitX=0.5;exitY=0;exitDx=0;exitDy=0;entryX=0.5;entryY=1;entryDx=0;entryDy=0;fontFamily=Verdana;" edge="1" parent="1" source="Cn9RMeOCZ9ZSjpGhhXbO-21" target="Cn9RMeOCZ9ZSjpGhhXbO-25">
          <mxGeometry relative="1" as="geometry" />
        </mxCell>
        <mxCell id="Cn9RMeOCZ9ZSjpGhhXbO-34" style="edgeStyle=orthogonalEdgeStyle;rounded=0;orthogonalLoop=1;jettySize=auto;html=1;exitX=0.5;exitY=0;exitDx=0;exitDy=0;entryX=0.5;entryY=1;entryDx=0;entryDy=0;fontFamily=Verdana;" edge="1" parent="1" source="Cn9RMeOCZ9ZSjpGhhXbO-25" target="Cn9RMeOCZ9ZSjpGhhXbO-1">
          <mxGeometry relative="1" as="geometry" />
        </mxCell>
        <mxCell id="Cn9RMeOCZ9ZSjpGhhXbO-53" value="" style="group;labelBorderColor=none;labelBackgroundColor=none;shadow=0;rounded=0;glass=0;fontFamily=Verdana;" vertex="1" connectable="0" parent="1">
          <mxGeometry x="329" y="230" width="223" height="220" as="geometry" />
        </mxCell>
        <mxCell id="Cn9RMeOCZ9ZSjpGhhXbO-42" value="Human-Centered Design" style="text;html=1;strokeColor=none;fillColor=none;align=center;verticalAlign=middle;whiteSpace=wrap;rounded=0;fontSize=19;fontStyle=1;shadow=0;labelBackgroundColor=none;fontFamily=Verdana;" vertex="1" parent="Cn9RMeOCZ9ZSjpGhhXbO-53">
          <mxGeometry x="1" y="80" width="222" height="60" as="geometry" />
        </mxCell>
        <mxCell id="Cn9RMeOCZ9ZSjpGhhXbO-59" value="Critical thinking" style="rounded=1;whiteSpace=wrap;html=1;arcSize=50;fontSize=17;strokeColor=#99000066;fontFamily=Verdana;" vertex="1" parent="1">
          <mxGeometry x="85" y="668" width="170" height="52" as="geometry" />
        </mxCell>
        <mxCell id="Cn9RMeOCZ9ZSjpGhhXbO-60" value="Problem solving" style="rounded=1;whiteSpace=wrap;html=1;arcSize=50;fontSize=17;strokeColor=#99000066;fontFamily=Verdana;" vertex="1" parent="1">
          <mxGeometry x="265" y="668" width="170" height="52" as="geometry" />
        </mxCell>
        <mxCell id="Cn9RMeOCZ9ZSjpGhhXbO-61" value="Hands-on prototyping" style="rounded=1;whiteSpace=wrap;html=1;arcSize=50;fontSize=17;strokeColor=#99000066;fontFamily=Verdana;" vertex="1" parent="1">
          <mxGeometry x="445" y="668" width="210" height="52" as="geometry" />
        </mxCell>
        <mxCell id="Cn9RMeOCZ9ZSjpGhhXbO-62" value="Presenting" style="rounded=1;whiteSpace=wrap;html=1;arcSize=50;fontSize=17;strokeColor=#99000066;fontFamily=Verdana;" vertex="1" parent="1">
          <mxGeometry x="665" y="668" width="130" height="52" as="geometry" />
        </mxCell>
        <mxCell id="Cn9RMeOCZ9ZSjpGhhXbO-63" value="Skills" style="text;html=1;strokeColor=none;fillColor=none;align=center;verticalAlign=middle;whiteSpace=wrap;rounded=0;fontSize=16;fontStyle=0;fontColor=#666666;labelBackgroundColor=#FEFFE8;fontFamily=Verdana;" vertex="1" parent="1">
          <mxGeometry x="386" y="629" width="110" height="30" as="geometry" />
        </mxCell>
        <mxCell id="Cn9RMeOCZ9ZSjpGhhXbO-64" value="Product Ideation and Development" style="text;html=1;strokeColor=none;fillColor=none;align=center;verticalAlign=middle;whiteSpace=wrap;rounded=0;fontSize=16;fontStyle=0;fontColor=#666666;labelBackgroundColor=#FEFFE8;fontFamily=Verdana;" vertex="1" parent="1">
          <mxGeometry x="50" y="70" width="780" height="30" as="geometry" />
        </mxCell>
        <mxCell id="Cn9RMeOCZ9ZSjpGhhXbO-65" value="Young Innovators Lab 2023" style="text;html=1;strokeColor=none;fillColor=none;align=center;verticalAlign=middle;whiteSpace=wrap;rounded=0;fontColor=#B3B3B3;fontFamily=Verdana;" vertex="1" parent="1">
          <mxGeometry x="360" y="570" width="161" height="30" as="geometry" />
        </mxCell>
      </root>
    </mxGraphModel>
  </diagram>
</mxfile>
